<mxfile host="app.diagrams.net" agent="Mozilla/5.0 (X11; Linux x86_64) AppleWebKit/537.36 (KHTML, like Gecko) Chrome/134.0.0.0 Safari/537.36" version="26.1.1">
  <diagram name="Page-1" id="u0QZoD-G6O_yvCrgMMRi">
    <mxGraphModel dx="-274" dy="344" grid="1" gridSize="10" guides="1" tooltips="1" connect="1" arrows="1" fold="1" page="1" pageScale="1" pageWidth="850" pageHeight="1100" math="0" shadow="0">
      <root>
        <mxCell id="0" />
        <mxCell id="1" parent="0" />
        <mxCell id="KNabu679gd0ZI0ME8zfO-25" value="" style="rounded=1;whiteSpace=wrap;html=1;fillColor=#dae8fc;strokeColor=#6c8ebf;gradientColor=#7ea6e0;" vertex="1" parent="1">
          <mxGeometry x="1140" y="380" width="120" height="80" as="geometry" />
        </mxCell>
        <mxCell id="KNabu679gd0ZI0ME8zfO-17" value="" style="rounded=1;whiteSpace=wrap;html=1;fillColor=#dae8fc;gradientColor=#7ea6e0;strokeColor=#6c8ebf;" vertex="1" parent="1">
          <mxGeometry x="1151" y="384" width="19" height="70" as="geometry" />
        </mxCell>
        <mxCell id="KNabu679gd0ZI0ME8zfO-13" value="" style="ellipse;shape=cloud;whiteSpace=wrap;html=1;fillColor=light-dark(#6f6d6d, #202020);strokeColor=#36393d;" vertex="1" parent="1">
          <mxGeometry x="1190" y="400" width="60" height="40" as="geometry" />
        </mxCell>
        <mxCell id="KNabu679gd0ZI0ME8zfO-9" value="" style="ellipse;shape=cloud;whiteSpace=wrap;html=1;fillColor=#dae8fc;strokeColor=#6c8ebf;" vertex="1" parent="1">
          <mxGeometry x="1170" y="415" width="60" height="40" as="geometry" />
        </mxCell>
        <mxCell id="KNabu679gd0ZI0ME8zfO-7" value="" style="shape=image;verticalLabelPosition=bottom;labelBackgroundColor=default;verticalAlign=top;aspect=fixed;imageAspect=0;image=data:image/png,iVBORw0KGgoAAAANSUhEUgAAACAAAAAgCAYAAABzenr0AAACh0lEQVR4AWIYEmAUvGNgYATQXg9hckRRGIZPxoqziW3btm3bySa2bdu2bW1i2xx3T5x05uZbVAdtLt7n3rqF85erkAhhJuOpUAGZEeDNAHVwEefQHzlQDmfxFS+xAx2QFgk8WTwNbkJpDHiPGCgTBjzAZOSBjycCtIMByklvMBYp3Cnuj21QLorHMgS6GiAn3kC5IRx5XQ3QG8pNv9Da6eKrRYIiRA64HQCY6VRxxdWbVaT0JpFIvWcCnESIrUPth/zohUVxIru7iNzOxkV0Gh4I8QqZrRVPhikIRzxULDpz7oQ2J2M7tHGd6wG+RYvUthZgEn5CGemxgAB+tILkBBiIe9C7ECQat0RGWgtwH+pfsXhBsXoQLYQP8jI9HXfAMirOgTCxeI8xXAeHRTJaCvAIypQOtylUEwnoi8YXWRnrgW24g3DotED/0mk7MgElRQwPRe5xBHuy/dB/A6yAshbiCSv3QxJoIQAEIhPjVTld3TGa/izauZzSSfR70i9K689y6egTlqDynW0vRwpjgEJ4bCtEFPawci2EaUHsMFumBmNvEas9orEYocYQbaCDskaPd1qQDuxNZtoAe0GQAIVY9hRMrpfP6GwM4IseiLZ3QekRjTtscAsGE6Y+itDPSptBk5vp2rTTcM+0uAaX/r0WfNAQD6Ds0SEOekTiFUUe4q5QEE/pRzBu57aNsHRX5MIGfIFyVKxGB9Bn3L4X1p4NwWiGC/gB5SUb7L2Ok6MDzuALlAc9RylHvwsSoxZW4il+QrnhDZq58oHiiwxoiaW4gmgYHPw8C8cmlEACdz9WfZAUBdAMw7AEO3EUp3AE2zALnZEPgd7+ifFDIH6PA0ozMwxmMAoAeMXZ15G46mMAAAAASUVORK5CYII=;" vertex="1" parent="1">
          <mxGeometry x="1230" y="410" width="10" height="10" as="geometry" />
        </mxCell>
        <mxCell id="KNabu679gd0ZI0ME8zfO-8" value="" style="shape=image;verticalLabelPosition=bottom;labelBackgroundColor=default;verticalAlign=top;aspect=fixed;imageAspect=0;image=data:image/png,iVBORw0KGgoAAAANSUhEUgAAACAAAAAgCAIAAAD8GO2jAAAABnRSTlMAAAAAAABupgeRAAAAWklEQVR4AWP4FKBEJPrip8wABrV7GOp3EYtGhgWjFoxaMGrBqAXf/OSIRD995CEWVO9hqN1FLBoOYNlnotF3iI7/O4lHQOVL3hONPo9agB2NWjBqwagFoxYAAB2zMZ7bQW2tAAAAAElFTkSuQmCC;" vertex="1" parent="1">
          <mxGeometry x="1190" y="425" width="10" height="10" as="geometry" />
        </mxCell>
        <mxCell id="KNabu679gd0ZI0ME8zfO-10" value="" style="shape=image;verticalLabelPosition=bottom;labelBackgroundColor=default;verticalAlign=top;aspect=fixed;imageAspect=0;image=data:image/png,iVBORw0KGgoAAAANSUhEUgAAABwAAAAcCAMAAABF0y+mAAAAUVBMVEVHcEz////////////////////L1/jZ4fr///+5yPUzbucZYuUPX+RYg+r///////8va+aqvfMlZ+X////q7vyVrfD4+v5pjuuCoO4AWeQAT+OgMvJ5AAAAF3RSTlMAJoh0xv///6z//////0zZ////mP//+V8enREAAAFwSURBVHgBdZOLzqwgDAZ11w+WFlbsFpB9/wc9bUzMf24TE9HBOGl0+cn6eC7/Yd0QIl7rv1UiziX8rd+7q2q43tbf1SFcqZIdlSn90K7EBHFIQga7vtxHsymj8tGYrhX1K7wfQmYry4hhZDFnN47rUYwqaTAnwGmZxyF1wN0bTNJwKkLRMCLiiVOI4U0PZSIhYMzZY54NELGo6C/dvFBOoI8v9GsLDOuT9DKJ0/dpJCABAV16YN/ebWygahKNSWGol2WfBqynX6vBlpQL4pjNJWV9L59gsZmgMFqCoeBsueG57E3kQIemNgD04hu02922LXaqpcwDkweCgphwzFKqtH35WJAhiN8IKUhTUR3C20ar2XJlIKLNGaAY4j36WgyESWZLR0xJ0d3RDPvirGjsl5qCajjUt3LDcvHEEJ/IZGNqE3/J/Sm8QBbnY/SxWb7H3OwWJe7cSs36udUVxTczbLe4onq80b78wfNxc/8TvwBQ/hzgLPKw9wAAAABJRU5ErkJggg==;" vertex="1" parent="1">
          <mxGeometry x="1205" y="435" width="10" height="10" as="geometry" />
        </mxCell>
        <mxCell id="KNabu679gd0ZI0ME8zfO-11" value="" style="shape=image;verticalLabelPosition=bottom;labelBackgroundColor=default;verticalAlign=top;aspect=fixed;imageAspect=0;image=data:image/png,iVBORw0KGgoAAAANSUhEUgAAACAAAAAgCAYAAABzenr0AAAC5UlEQVR4Aa1XQ3hkQRjc+ynX2OZtbfu+tm3b1nlt27a9O4qNS5xxbdd+cTKvXydT31fJoPuvmvf6/ejw86dBlX6CwwQXCq6t5cLaz/xV4+ld6F8r9NdgsCAjIwf5+UUoLCwBydf8jN+JNQbBddzjDQM+gocErRSyWm2QgWu4lntq9/q01UAfwYKCgmK43W6ognu4lzEE+6oamCboLC0tR3vBGIwlOF2vgZm5uQWoqamBXrhcLpw5cxZ79uxFKxCxrGBMxpYZ6Eu33KAXNDp+/AQEBgbzv8Y6Kxi7+e1ofuAKVS/7zp27KE7i6dNnem5HAbVaM3CYh0YF/PWRkdEUpxHoQe3BPNTcQJCgTc9pT0tLh8VigdPpBLFv3368evVKBC7A16/fkJmZKX06qCXo39jAej67Wnjx4iVGjBiJ0NBwBAeHYsCAgTh48BCuXLmCKVOmIioqBrwS4eGRGDduPMxmMzyBWtRsbMCglWSePXuOkJAwCuhmnz79YLVaPSUrGjDWGQhgCvWEyspKdOrURUk8JiYO799/0Exg1KQ2DQxjHveEO3fuKomTPBcyUJPaNLCQxcQTNm3arGzAYDBABmoK7UU0sE7rAC5dukxJPCgoRPy6DMhATWpLDWzbtl35Cty//0DBgOQW3LhxU9nAsGEj4HA4dN0CySHkwvy6bKfECRMmISsrS34IZY8hMXnyFAZV5rFjx6WPoa5E9PnzZ2XxpKQUlJaWaiUik1IqXrBgkZKB06fPwBOKiv4fwA3Ni5FdK3NVVFSgd+++usRnzJilXIzII7JynJOTAxaa7t17Yt68+bh37z6+fPmKCxcuYvToMejVqzdWrVrNMi0rx4cVGxIFKDQkCi2ZAhRaMklTavWqeF6epCltxuneasvLyurb8lmqg0lfLw4m/dozmh0RtBUV6R/NuJZ7avf6eGs4ZeIwMoVmZrYcTvkZv+MarlUZTlUZIDi8diRfX8uFtZ8FqMb7Bx+2VJbBTrlcAAAAAElFTkSuQmCC;" vertex="1" parent="1">
          <mxGeometry x="1205" y="410" width="10" height="10" as="geometry" />
        </mxCell>
        <mxCell id="KNabu679gd0ZI0ME8zfO-16" value="" style="shape=image;verticalLabelPosition=bottom;labelBackgroundColor=default;verticalAlign=top;aspect=fixed;imageAspect=0;image=https://upload.wikimedia.org/wikipedia/commons/thumb/3/3a/OpenShift-LogoType.svg/200px-OpenShift-LogoType.svg.png;" vertex="1" parent="1">
          <mxGeometry x="1217.65" y="422" width="9.35" height="10" as="geometry" />
        </mxCell>
        <mxCell id="KNabu679gd0ZI0ME8zfO-18" value="" style="shape=image;verticalLabelPosition=bottom;labelBackgroundColor=default;verticalAlign=top;aspect=fixed;imageAspect=0;image=data:image/png,iVBORw0KGgoAAAANSUhEUgAAABwAAAAcCAMAAABF0y+mAAABNVBMVEVHcEymd7SuV4LFUW/lT13qUFymd7SycabGWHnGZ47MZIbNY4XXXnncW3PkVGSCRHrNT2flUF3uUlzoUFzaTWDTTGGtc6yvc6q+ape8bJrBapTGZ47XXnjTUmrjU2ToVWTtU17QTGLCaZPWXnrBTWvrUFvHS2TbTl+7SWfgWW7lT13FSmWzR2q4SGjgTl7OUWrBSWa5SGi2SGntU1/IS2StR2vmV2fRTGKjRW2yR2qdRG92PnlUOYKYQ3CUQ3KvR2qoRmydRG+YQ3CPQnOLQnSYQ3FZOoBuPXtsPXxgO39ROILBSmVsPXtWOYGeRG+jRW5+P3dTOYJANoY9NYczNIp0Pnk/Noc9NYgsM4yHQXRsPXtWOYE9NYcvM4t9P3dqPHxlPH2WQ3FoPH1SOIJCNoaLQXQ2NYlEO4Z5AAAAZ3RSTlMAZB8NVnTu+0Rp2P//64sFGMv//tu8onrFOu37ciqY/GP9o4Ej3v/93/+o8aaJ/6pj/3mfWP9ClPjC3ywVZf7acHpFz5e7YMLhrSLJivpSX+Wb8z+j/0Vuj8P6fUzo0JhsnXe11oV8myN/xQAAAcJJREFUeAFUzwOWQ0EURdGTVL4V27Zttec/n45xFwq78B7gcrl5jfBI4j53yYqiqGi6YZiW7Xh9/kAwdMdwRERj8URUFUmRSmf8WdvjzT2RWD4eA2+hCKJkp/GW7xgJQ6LICe0UQCWFWr1jTCGvQcGqZfz+uhdvg2brjsS1BFi1swXap3udbk88MGUU6NwtVybV6/OMroqanR2cLDgclruMngSmGJ/u2ad7k3Kj12TqfkWH9OnN+mRSLvdmgvniaVjnHuxUMFcWM1iu1uJpjDNjSfJ5vS2VzXa3Pxx5jRQQEOo3WrMUfBx4j6c9KaqTYb/Fdn2Ez6/vn9+nDnN/vWpzNp2fzPnvWh6MHQoAIIruJAUkRfzRt5Vn27b7LyHm3fGZVQwVkimd8OX1c2kx9p0lCHBkqIQL7/R9wKENGQtT3fz8AIfeALAWCyA0InMFeIiTg+kbhIgUQGbkOYCiPB7fmcfZCjwqEKtaMnHV2zvzL/AblGulyW+QXoot4HQK4PbEgMtmvxx4QN4MPQpPu8Rfjps7wg7dYeFH5YXN/zku1bDq1G4FrY+ikrhQchyrumlq043jYJiSGDc1Xddo8SZctAZnM0vrb2YY3AAAAABJRU5ErkJggg==;" vertex="1" parent="1">
          <mxGeometry x="1155.5" y="407" width="10" height="10" as="geometry" />
        </mxCell>
        <mxCell id="KNabu679gd0ZI0ME8zfO-19" value="" style="shape=image;verticalLabelPosition=bottom;labelBackgroundColor=default;verticalAlign=top;aspect=fixed;imageAspect=0;image=data:image/png,iVBORw0KGgoAAAANSUhEUgAAACAAAAAgCAYAAABzenr0AAABt0lEQVR4AeRXJVBFQRRdXHqGhOt3KbgX3F0qTsFJSKQn6A13d2/0SMXtcS6zO4Mm2LfInTnP355zZY1JNFeAmc3mcJPJNA+s4HrIZrNFvvjGRRp7bGysOxcw6nQ6NZw1q9WqQcgDrtuYbMvLy3Ojs9ForAPpswACroWQZqaXWSyWaJAXURqECOAGQgKZzuZK9fAiHX16kLpQOlAT3jwaiSQAZw3pmRUf6VYTBoMhFJ5fUAQgZPdZIVWsTLyMAEjTRQQgZIrpaSD0Bfn6ixroZKQQuUjBwxycsyShCmQNwD48F93xEuODP6ka5uGgF1JA7ZPHnOcBeMTzahGWfYfDIT6Sghde3/LzGeDHyPCBAzfjwAww/QH48y9hCzjl5ELQEtPLqM5A7AFUgPhKDMdUH2LWctFLDAR0IAJCwMjLdy4yQRHgA1EU1QLvhpvqBahOgfoiVN4NlQ9EyodiPSYjEH8+GSmfjtUvSP7bkuzjRanqZTkNRniYBEXxUJbw3QBRBlD84cYEFwP84SOgyQAP+cdbM1wcYSQUH0kBb/vjzSmqMgEPdvDiBDgCjr8RRxxPuwuqerF1zwGP6748NmvbRgAAAABJRU5ErkJggg==;" vertex="1" parent="1">
          <mxGeometry x="1155.5" y="423" width="10" height="10" as="geometry" />
        </mxCell>
        <mxCell id="KNabu679gd0ZI0ME8zfO-20" value="" style="shape=image;verticalLabelPosition=bottom;labelBackgroundColor=default;verticalAlign=top;aspect=fixed;imageAspect=0;image=https://upload.wikimedia.org/wikipedia/commons/thumb/f/fa/Microsoft_Azure.svg/120px-Microsoft_Azure.svg.png;" vertex="1" parent="1">
          <mxGeometry x="1187" y="444" width="10" height="10" as="geometry" />
        </mxCell>
        <mxCell id="KNabu679gd0ZI0ME8zfO-21" value="" style="shape=image;verticalLabelPosition=bottom;labelBackgroundColor=default;verticalAlign=top;aspect=fixed;imageAspect=0;image=data:image/png,iVBORw0KGgoAAAANSUhEUgAAABwAAAAcCAMAAABF0y+mAAAAflBMVEUjLz4dKjohLT0NHzFQV2FKUlwAFywnM0IaKDgzPUpWXGUVJDbq6+3i4+X29/jLzc99gogAABubnqP///9yd393fIPY2twAAAAAAB8AACK1t7ujpqsADicAFitiaHGGi5GUmJ1pb3cAFCqJjpQ8RlIuOUZDS1errrEGHC/DxslAWrmhAAAA1UlEQVR4Ad2OhWGFMBBAI0iIlhzuTth/wHqLjPBf5FzQ64Hx10++H8H3GPX8IMQEE8JCGnFC0ImQSps3GVuIE5lCpii6EOQFhFAaHVV1ZvPm1rWSGbSqk3UvvQ70cKlkI8QFUGtMZ3QzxRz4uRPmMBvoFrAlVEVlB4jIpW1S8W6l/SLSjfF93xw6IZPDDCFBvi52Sd2zs+1haSB+OxHhzz2Is3KycKRomtp2mthYyTFr0YlbKwCtTJZp0LWbO4YuEBd09WHMYXlDCWPoAaMuCBzF6BX5AC2JD1u/hbEIAAAAAElFTkSuQmCC;" vertex="1" parent="1">
          <mxGeometry x="1235" y="427" width="10" height="10" as="geometry" />
        </mxCell>
        <mxCell id="KNabu679gd0ZI0ME8zfO-23" value="" style="shape=image;verticalLabelPosition=bottom;labelBackgroundColor=default;verticalAlign=top;aspect=fixed;imageAspect=0;image=data:image/png,iVBORw0KGgoAAAANSUhEUgAAAgAAAAIACAYAAAD0eNT6AAAAAXNSR0IArs4c6QAAHh9JREFUeAHt3U+obmUVBvBlRob9IyJIshIaFITYIJolDgwiCpxVI0Fo1rQGgSUEETQoJIKIJo2UJjqpIMiJ0CSisJyUUIQZBVKitxDTzqrl5Z5O997vu+d8++y7n9+GQ1KHPOu3nvd7n329apWHAAECBAgQIECAAAECBAgQIECAAAECBAgQIECAAAECBAgQIECAAAECBAgQIECAAAECBAgQIECAAAECBAgQIECAAAECBAgQIECAAAECBAgQIECAAAECBAgQIECAAAECBAgQIECAAAECBAgQIECAAAECBAgQIECAAAECBAgQIECAAAECBAgQIECAAAECBAgQIECAAAECBAgQIECAAAECBAgQIECAAAECBAgQIECAAAECBAgQIECAAAECBAgQIECAAAECBAgQIECAAAECBAgQIECAAAECBAgQIECAAAECBAgQIECAAAECBAgQIECAAAECBAgQIECAAAECBAgQIECAAAECBAgQIECAAAECBAgQIECAAAECBAgQIECAAAECBAgQIECAAAECBAgQIECAAAECBAgQIECAAAECBAgQIECAAAECBAgQIECAAAECBAgQIECAAAECBAgQIECAAAECBAgQIECAAAECBAgQIECAAAECBAgQIECAAAECBAgQIECAAAECBAgQIECAAAECBAgQIECAAAECBAgQIECAAAECBAgQIECAAAECBAgQIECAAAECBAgQIECAAAECBAgQIECAAAECBAgQIECAAAECBAgQIECAAAECBAgQIECAAAECBAgQIECAAAECBAgQIECAAAECBAgQIECAAAECBAgQIECAAAECBAgQIECAAAECBAgQIECAAAECBAgQIECAAAECBAgQIECAAAECBAgQIECAAAECBAgQIECAAAECBAgQIECAAAECBAgQIECAAAECBAgQIECAAAECBAgQIECAAAECBAgQIECAAAECBAgQIECAAAECBAgQIECAAAECBAgQIECAAAECBAgQIECAAAECBAgQIECAAAECBAgQIECAAAECBAgQIECAAAECBAgQIECAAAECBAgQIECAAAECBAgQIECAAAECBAgQIECAAAECBAgQIECAAAECBAgQIECAAAECBAgQIECAAAECBAgQIECAAAECBAgQIECAAAECBAgQIECAAAECBAgQIECAAAECBAgQIECAAIENCdxYVe+uqtt8MZABGZABGbiGDPQd0neJZ+UCr6+qe6vqW1X1s6q6UFWv+GIgAzIgAzJwigz0XdJ3St8tfcf0XeNZkcCHq+rJUyxYUVCWZEAGZEAGdslA3zV953jOWeB1VfXVqnrJ5a/hy4AMyIAMLJSBvnP67uk7yHNOAt9caNm7tELf4+1BBmRABrIy0HeQ5xwE7qyqlxUAjV8GZEAGZOCcMtB3UN9FngUF3lBVT53TwjX8rIZv3/YtAzJwpQz0XdR3kmchgS+4/DV+GZABGZCBlWSg7yTPQgKPrGTpV2qF/jdvDTIgAzKQkYG+kzwLCTytAGj+MiADMiADK8lA30meBQRuWcnCNfuMZm/P9iwDMrBLBvpu8hxY4G4FQOuXARmQARlYWQb6bvIcWOBjK1v6Ls3Q93iDkAEZkIFtZ6DvJs+BBRSAbR8iH5L2KwMycD1mQAE48OXf//cKgA+H6/HDwc8stzKw7QwoAAqAvy7nL9HIgAzIQGAGFAAFwMEPPPje7Lb9Zme/9rtLBhQABUABUABkQAZkIDADCoAC4OAHHvxd3g58j7dIGdh2BhQABUABUABkQAZkIDADCoAC4OAHHnxvdtt+s7Nf+90lAwqAAqAAKAAyIAMyEJgBBUABcPADD/4ubwe+x1ukDGw7AwqAAqAAKAAyIAMyEJgBBUABcPADD743u22/2dmv/e6SAQVAAVAAFAAZkAEZCMyAAqAAOPiBB3+XtwPf4y1SBradAQVAAVAAFAAZkAEZCMyAAqAAOPiBB9+b3bbf7OzXfnfJgAKgACgACoAMyIAMBGZAAVAAHPzAg7/L24Hv8RYpA9vOgAKgACgACoAMyIAMBGZAAVAAHPzAg+/NbttvdvZrv7tkQAFQABQABUAGZEAGAjOgACgADn7gwd/l7cD3eIuUgW1nQAFQABQABUAGZEAGAjOgACgADn7gwfdmt+03O/u1310yoACEFoAnq+ohXwxkQAZkYJEM9GfuLpfykt+jAIQWgK8tMLc/BQECBAj8V6A/c5e83Hf5cykAC6SzkXdZxpLfowAssHh/CgIECIyAAhAaBQUgdPHGJkCAwAgoAKFRUABCF29sAgQIjIACEBoFBSB08cYmQIDACCgAoVFQAEIXb2wCBAiMgAIQGgUFIHTxxiZAgMAIKAChUVAAQhdvbAIECIyAAhAaBQUgdPHGJkCAwAgoAKFRUABCF29sAgQIjIACEBoFBSB08cYmQIDACCgAoVFQAEIXb2wCBAiMgAIQGgUFIHTxxiZAgMAIKAChUVAAQhdvbAIECIyAAhAaBQUgdPHGJkCAwAgoAKFRUABCF29sAgQIjIACEBoFBSB08cYmQIDACCgAoVFQAEIXb2wCBAiMgAIQGgUFIHTxxiZAgMAIKAChUVAAQhdvbAIECIyAAhAaBQUgdPHGJkCAwAgoAKFRUABCF29sAgQIjIACEBoFBSB08cYmQIDACCgAoVFQAEIXb2wCBAiMgAIQGgUFIHTxxiZAgMAIKAChUVAAQhdvbAIECIyAAhAaBQUgdPHGJkCAwAgoAKFRUABCF29sAgQIjIACEBoFBSB08cYmQIDACCgAoVFQAEIXb2wCBAiMgAIQGgUFIHTxxiZAgMAIKAChUVAAQhdvbAIECIyAAhAaBQUgdPHGJkCAwAgoAKFRUABCF29sAgQIjIACEBoFBSB08cYmQIDACCgAoVFQAEIXb2wCBAiMgAIQGgUFIHTxxiZAgMAIKAChUVAAQhdvbAIECIyAAhAaBQUgdPHGJkCAwAgoAKFRUABCF29sAgQIjIACEBoFBSB08cYmQIDACCgAoVFQAEIXb2wCBAiMgAIQGgUFIHTxxiZAgMAIKAChUVAAQhdvbAIECIyAAhAaBQUgdPHGJkCAwAgoAKFRUABCF29sAgQIjIACEBoFBSB08cYmQIDACCgAoVFQAEIXb2wCBAiMgAIQGgUFIHTxxiZAgMAIKAChUVAAQhdvbAIECIyAAhAaBQUgdPHGJkCAwAgoAKFRUABCF29sAgQIjIACEBoFBSB08cYmQIDACCgAoVFQAEIXb2wCBAiMgAIQGgUFIHTxxiZAgMAIKAChUVAAQhdvbAIECIyAAhAaBQUgdPHGJkCAwAgoAKFRUABCF29sAgQIjIACEBoFBSB08cYmQIDACCgAoVFQAEIXb2wCBAiMgAIQGgUFIHTxxiZAgMAIKAChUVAAQhdvbAIECIyAAhAaBQUgdPHGJkCAwAgoAKFRUABCF29sAgQIjIACEBoFBSB08cYmQIDACCgAoVFQAEIXb2wCBAiMgAIQGgUFIHTxxiZAgMAIKAChUVAAQhdvbAIECIyAAhAaBQUgdPHGJkCAwAgoAKFRUABCF29sAgQIjIACEBoFBSB08cYmQIDACCgAoVFQAEIXb2wCBAiMgAIQGgUFIHTxxiZAgMAIKAChUVAAQhdvbAIECIyAAhAaBQUgdPHGJkCAwAgoAKFRUABCF29sAgQIjIACEBoFBSB08cYmQIDACCgAoVFQAEIXb2wCBAiMgAIQGgUFIHTxxiZAgMAIKAChUVAAQhdvbAIECIyAAhAaBQUgdPHGJkCAwAgoAKFRUABCF29sAgQIjIACEBoFBSB08cYmQIDACCgAoVFQAEIXb2wCBAiMgAIQGgUFIHTxxiZAgMAIKAChUVAAQhdvbAIECIyAAhAaBQUgdPHGJkCAwAgoAKFRUABCF29sAgQIjIACEBoFBSB08cYmQIDACCgAoVFQAEIXb2wCBAiMgAIQGgUFIHTxxiZAgMAIKAChUVAAQhdvbAIECIyAAhAaBQUgdPHGJkCAwAgoAKFRUABCF29sAgQIjIACEBoFBSB08cYmQIDACCgAoVFQAEIXb2wCBAiMgAIQGgUFIHTxxiZAgMAIKAChUVAAQhdvbAIECIyAAhAaBQUgdPHGJkCAwAgoAKFRUABCF29sAgQIjIACEBoFBSB08cYmQIDACCgAoVFQAEIXb2wCBAiMgAIQGgUFIHTxxiZAgMAIKAChUVAAQhdvbAIECIyAAhAaBQUgdPHGJkCAwAgoAKFRUABCF29sAgQIjIACEBoFBSB08cYmQIDACCgAoVFQAEIXb2wCBAiMgAIQGgUFIHTxxiZAgMAIKAChUVAAQhdvbAIECIyAAhAaBQUgdPHGJkCAwAgoAKFRUABCF29sAgQIjIACEBoFBSB08cYmQIDACCgAoVFQAEIXb2wCBAiMgAIQGgUFIHTxxiZAgMAIKAChUVAAQhdvbAIECIyAAhAaBQUgdPHGJkCAwAgoAKFRUABCF29sAgQIjIACEBoFBSB08cYmQIDACCgAoVFQAEIXb2wCBAiMgAIQGgUFIHTxxiZAgMAIKAChUVAAQhdvbAIECIyAAhAaBQUgdPHGJkCAwAgoAKFRUABCF29sAgQIjIACEBoFBSB08cYmQIDACCgAoVFQAEIXb2wCBAiMgAIQGgUFIHTxxiZAgMAIKAChUVAAQhdvbAIECIyAAhAaBQUgdPHGJkCAwAgoAKFRUABCF29sAgQIjIACEBoFBSB08cYmQIDACCgAoVFQAEIXb2wCBAiMgAIQGgUFIHTxxiZAgMAIKAChUVAAQhdvbAIECIyAAhAaBQUgdPHGJkCAwAgoAKFRUABCF29sAgQIjIACEBoFBSB08cYmQIDACCgAoVFQAEIXb2wCBAiMgAIQGgUFIHTxxiZAgMAIKAChUVAAQhdvbAIECIyAAhAaBQUgdPHGJkCAwAgoAKFRUABCF29sAgQIjIACEBoFBSB08cYmQIDACCgAoVFQAEIXb2wCBAiMgAIQGgUFIHTxxiZAgMAIKAChUVAAQhdvbAIECIyAAhAaBQUgdPHGJkCAwAgoAKFRUABCF29sAgQIjIACEBoFBSB08cYmQIDACCgAoVFQAEIXb2wCBAiMgAIQGgUFIHTxxiZAgMAIKAChUVAAQhdvbAIECIyAAhAaBQUgdPHGJkCAwAgoAKFRUABCF29sAgQIjIACEBoFBSB08cYmQIDACCgAoVFQAEIXb2wCBAiMgAIQGgUFIHTxxiZAgMAIKAChUVAAQhdvbAIECIyAAhAaBQUgdPHGJkCAwAgoAKFRUABCF29sAgQIjIACEBoFBSB08cYmQIDACCgAoVFQAEIXb2wCBAiMgAIQGgUFIHTxxiZAgMAIKAChUVAAQhdvbAIECIyAAhAaBQUgdPHGJkCAwAgoAKFRUABCF29sAgQIjIACEBoFBSB08cYmQIDACCgAoVFQAEIXb2wCBAiMgAIQGgUFIHTxxiZAgMAIKAChUVAAQhdvbAIECIyAAhAaBQUgdPHGJkCAwAgoAKFRUABCF29sAgQIjIACEBoFBSB08cYmQIDACCgAoVFQAEIXb2wCBAiMgAIQGgUFIHTxxiZAgMAIKAChUVAAQhdvbAIECIyAAhAaBQUgdPHGJkCAwAgoAKFRUABCF29sAgQIjIACEBoFBSB08cYmQIDACCgAoVFQAEIXb2wCBAiMgAIQGgUFIHTxxiZAgMAIKAChUVAAQhdvbAIECIyAAhAaBQUgdPHGJkCAwAgoAKFRUABCF29sAgQIjIACEBoFBSB08cYmQIDACCgAoVFQAEIXb2wCBAiMgAIQGgUFIHTxxiZAgMAIKAChUVAAQhdvbAIECIyAAhAaBQUgdPHGJkCAwAgoAKFRUABCF29sAgQIjIACEBoFBSB08cYmQIDACCgAoVFQAEIXb2wCBAiMgAIQGgUFIHTxxiZAgMAIKAChUVhjAXi4qvrn8sVABmRABg6fgf7MfWVlX713z4EFGnlti/fz2IkMyIAMZGdAATjw5d//9wpA9iHzIWv/MiADa8yAAqAA+NUJv0IjAzIgA4EZUAAUAAc/8OCv8W3Ez+QtWQaWzYACoAAoAAqADMiADARmQAFQABz8wIPvTWvZNy3evNeYAQVAAVAAFAAZkAEZCMyAAqAAOPiBB3+NbyN+Jm/JMrBsBhQABUABUABkQAZkIDADCoAC4OAHHnxvWsu+afHmvcYMKAAKgAKgAMiADMhAYAYUAAXAwQ88+Gt8G/EzeUuWgWUzoAAoAAqAAiADMiADgRlQABQABz/w4HvTWvZNizfvNWZAAVAAFAAFQAZkQAYCM6AAKAAOfuDBX+PbiJ/JW7IMLJsBBUABUAAUABmQARkIzIACoAA4+IEH35vWsm9avHmvMQMKgAKgACgAMiADMhCYAQVAAXDwAw/+Gt9G/EzekmVg2QwoAAqAAqAAyIAMyEBgBhQABcDBDzz43rSWfdPizXuNGVAAFAAFQAGQARmQgcAMKAAKgIMfePDX+DbiZ/KWLAPLZkABUAAUAAVABmRABgIzoAAoAA5+4MH3prXsmxZv3mvMgAKwQAG43QWjZMiADMiADKwsA303eQ4scGNVvbCyxa+xjfqZvCXJgAzIwDIZ6Dup7ybPAgKPKwDavwzIgAzIwEoy0HeSZyGBb6xk6dr1Mu2aM2cZkIE1Z6DvJM9CAndU1YtKgPYvAzIgAzJwzhnou6jvJM+CAvef89LX3Eb9bN6WZEAGZGCZDPRd5FlY4LVV9XMlQPuXARmQARk4pwz0HdR3keccBN5fVb89p8Vr18u0a86cZUAG1piBvnv6DvKco8DNVfVgVb2sCHgLkAEZkAEZOHAG+q7pO6fvHs9KBO6qqseq6rkDL3+NTdTP5A1JBmRABg6bgb5b+o7pu8azUoEbqup9VfWZo18V+NLRz/iALwYyIAMyIAPXkIG+Q/ou6Tul7xYPAQIECBAgQIAAAQIECBAgQIAAAQIECBAgQIAAAQIECBAgQIAAAQIECBAgQIAAAQIECBAgQIAAAQIECBAgQIAAAQIECBAgQIAAAQIECBAgQIAAAQIECBAgQIAAAQIECBAgQIAAAQIECBAgQIAAAQIECBAgQIAAAQIECBAgQIAAAQIECBAgQIAAAQIECBAgQIAAAQIECBAgsGWBD1TVXb4YyIAMyIAMyMBmM9B3/cXn9qp6rKpe8cVABmRABmRABjafgb7z++6v71n25pet3Cm4MiADMiADl2ag7/76gwKgAMiADMiADMhAVAb67q9fWHrU0i9tgP7YG4EMyIAMZGag7/76tgKgAMiADMiADMhAVAb67q97LD1q6dp+Ztu3d3uXARm4NAN999fNVXVBCVACZEAGZEAGZCAiA33n993/n+dRS49Y+qXtzx97G5ABGZCBzAz0nX/xuU8BUABkQAZkQAZkICIDfedffN5eVf+y+IjFa/yZjd/e7V0GZKAz0Hd93/nHnp8oAAqADMiADMiADGw6A33Xn3g+bumbXrr2r/3LgAzIgAz0XX/iuaGqfqMEKAEyIAMyIAMysMkM9B3fd/3/ffxmQO3QG4IMyIAMyMA2M3DsN//9bwu4qaqe0fw22fwc6G0eaHu1VxmQgV0y0Hd73/FXfL6oACgAMiADMiADMrCpDPTdftXnrVX1vMVvavG7tEPfc7i3iD9V1Qd97WXQZjLJQAbOJgN9p/fdvtPzoMPnw0cGziwDv9/p1PmmSwXazIc/Axk4mwz0nb7z0/+QgL86gD6AZOBMMqAA7PzRc/EbFYCz+eB3gXLsu/zEP/jn4km7zB982of/mXz4O4AOoAJwmQ+ZK/zXCoBz47PzbDLQd/k1PY8oAUqADJw6AwrA/h8/CsDZfPi7RLMd+w6/5ueWqnrWBXDqC8AhzD6ECsD+H0EKQPaZ8Zl5+v333d13+KmeexUABUAGTpUBBWD/jyAF4PQXgEs027Dv7jN5fugCONUF4CBmH0QFYP+PIQUg+8z4zDzd/vvOPrPn1qr6uxKgBMjANWVAAdj/o0gBON0F4ALN9eu7uu/sM30+68P/mj78HcTcg/jq7hWA/T+KFADn5tXz4z/3y0Lf1Qd5fqwEKAEysHcGFID9P44UgP0+9F2SvDoDfUcf7HlLVT3hAtj7AnA4sw+nArD/R5ICkH1mfGbuv/++m/uOPujzrqp6WglQAmRg5wwoAPt/JCkA+18ALs1cs76T+25e5Lmjqp5zAex8ATiYuQezd68A7P+xpABknxmfmbvvv+/ivpMXfT5aVS8qAUqADFw1AwrA/h9NCsDuF4DLMteq7+C+i8/l+WRV/cMFcNULwAHNPaB+BeDaPpoUgOwz4zPz6vvvu7fv4HN9PlJVf1MClAAZuGwG/ArA/h9RCsDVLwCXZK5R37l9967i6b/+8IwL4LIXgIOae1B793+pqnt87WXQZs4NAxk4mYG+axf/a/5XaxrvraqnHFofWjIgAzIgAzJwkAz0Hdt37Sqfd1TVTy3+IIvXhE82YSZMZEAGUjLQd2vfsat+XlNV91fVS4qAIiADMiADMiADp8pA36V9p/bdet08/RsU/mjxp1p8SrM1p7c4GZABGTiZgb5DV/Ob/fZtH2+rqkeVACVABmRABmRABvbKQN+dfYde9899/i6BvRavCZ9swkyYyIAMJGSgf5d/35mbet5YVV+pqgtaoDIgAzIgAzIgA8cy0Hdj35F9V272ubWqvl9VL1v+seUnNFszeoOTARmQgeMZ6Luw78S+G2OeD1XVY0qAEiADMiADMhCagb4D+y6MffqfaPSdqno+NADa8PE2zIOHDMjAljPQd13feav7p/mdZwt5c1V9rqp+rQh4G5ABGZABGdhYBvpu6zuu7zrPFQTurKqHquqFjQVgy63WbN7aZEAGZOB4BvoO67us7zTPngI3VdXdVfX1qnpCGfBGIAMyIAMysPIM9F3Vd1bfXX2Hec5I4J3z90c+XFXPrjwEmvDxJsyDhwzIwBYz0HdR30n99+73HeVZQODGqrq9qj51VAS+PL/M8quq+qdi4A1BBmRABmTgjDPQd0vfMf1L+g/M3dN3UN9FnpUI9L8wof91iZ84+j0Enz9qZN+tqh9U1Y+Ofknm8aN/J/svq+p3VfXn+TsP/PMIvJVs8a3ETHItA1fOQH/29+/I77ug74S+G/qO6Lui74y+O/oO6buk75Tr6l/Gs5L7ePU/xg1V9aajvy3jlqp6T1Xd5ouBDMiADGwyA/0Z35/1/Znfn/0eAgQIECBAgAABAgQIECBAgAABAgQIECBAgAABAgQIECBAgAABAgQIECBAgAABAgQIECBAgAABAgQIECBAgAABAgQIECBAgAABAgQIECBAgAABAgQIECBAgAABAgQIECBAgAABAgQIECBAgAABAgQIECBAgAABAgQIECBAgAABAgQIECBAgAABAgQIECBAgAABAgQIECBAgAABAgQIECBAgAABAgQIECBAgAABAgQIECBAgAABAgQIECBAgAABAgQIECBAgAABAgQIECBAgAABAgQIECBAgAABAgQIECBAgAABAgQIECBAgAABAgQIECBAgAABAgQIECBAgAABAgQIECBAgAABAgQIECBAgAABAgQIECBAgAABAgQIECBAgAABAgQIECBAgAABAgQIECBAgAABAgQIECBAgAABAgQIECBAgAABAgQIECBAgAABAgQIECBAgAABAgQIECBAgAABAgQIECBAgAABAgQIECBAgAABAgQIECBAgAABAgQIECBAgAABAgQIECBAgAABAgQIECBAgAABAgQIECBAgAABAgQIECBAgAABAgQIECBAgAABAgQIECBAgAABAgQIECBAgAABAgQIECBAgAABAgQIECBAgAABAgQIECBAgAABAgQIECBAgAABAgQIECBAgAABAgQIECBAgAABAgQIECBAgAABAgQIECBAgAABAgQIECBAgAABAgQIECBAgAABAgQIECBAgAABAgQIECBAgAABAgQIECBAgAABAgQIECBAgAABAgQIECBAgAABAgQIECBAgAABAgQIECBAgAABAgQIECBAgAABAgQIECBAgAABAgQIECBAgAABAgQIECBAgAABAgQIECBAgAABAgQIECBAgAABAgQIECBAgAABAgQIECBAgAABAgQIECBAgAABAgQIECBAgAABAgQIECBAgAABAgQIECBAgAABAgQIECBAgAABAgQIECBAgAABAgQIECBAgAABAgQIECBAgAABAgQIECBAgAABAgQIECBAgAABAgQIECBAgAABAgSyBP4N82WKDfC4TbsAAAAASUVORK5CYII=;" vertex="1" parent="1">
          <mxGeometry x="1153" y="438" width="15" height="15" as="geometry" />
        </mxCell>
        <mxCell id="KNabu679gd0ZI0ME8zfO-24" value="MAPT" style="text;html=1;align=center;verticalAlign=middle;whiteSpace=wrap;rounded=0;" vertex="1" parent="1">
          <mxGeometry x="1162" y="385" width="60" height="30" as="geometry" />
        </mxCell>
        <mxCell id="KNabu679gd0ZI0ME8zfO-27" value="" style="shape=image;verticalLabelPosition=bottom;labelBackgroundColor=default;verticalAlign=top;aspect=fixed;imageAspect=0;image=https://upload.wikimedia.org/wikipedia/commons/thumb/c/c2/GitHub_Invertocat_Logo.svg/250px-GitHub_Invertocat_Logo.svg.png;" vertex="1" parent="1">
          <mxGeometry x="1155.5" y="390" width="10" height="10" as="geometry" />
        </mxCell>
      </root>
    </mxGraphModel>
  </diagram>
</mxfile>
